<svg id="Layer_1" data-name="Layer 1" xmlns="http://www.w3.org/2000/svg" xmlns:xlink="http://www.w3.org/1999/xlink" viewBox="0 0 1920 1080"><defs><style>.cls-1{fill:#fefefe;}.cls-2{fill:url(#linear-gradient);}.cls-3{fill:url(#linear-gradient-2);}.cls-4{fill:url(#linear-gradient-3);}.cls-5{fill:none;}</style><linearGradient id="linear-gradient" x1="627.5" y1="548.77" x2="1290.42" y2="481.42" gradientUnits="userSpaceOnUse"><stop offset="0.14" stop-color="#511a42"/><stop offset="0.51" stop-color="#52143e"/><stop offset="0.85" stop-color="#180228"/></linearGradient><linearGradient id="linear-gradient-2" x1="736.32" y1="814.84" x2="1277.86" y2="744.93" gradientUnits="userSpaceOnUse"><stop offset="0.12" stop-color="#511a42"/><stop offset="0.46" stop-color="#52143e"/><stop offset="0.79" stop-color="#180228"/></linearGradient><linearGradient id="linear-gradient-3" x1="738.86" y1="297.95" x2="1283.72" y2="297.95" gradientUnits="userSpaceOnUse"><stop offset="0.25" stop-color="#4f1a42"/><stop offset="0.75" stop-color="#21072d"/></linearGradient></defs><path class="cls-1" d="M1373.57,533.62q0,200.55.06,401.11c0,2.77-.57,3.46-3.42,3.46q-401.51-.12-803,0c-3.21,0-2.91-.92-3.56-3.73-42.65-185.16-126.77-321.15,0-802.59.77-2.91.55-3.66,3.63-3.66q401.31.14,802.63,0c3.39,0,3.75,1,3.74,3.93Q1373.53,332.89,1373.57,533.62Zm-590.91,188c27.36,0,54.73-.21,82.06-1.79,23.45-1.35,46.89-2.88,70.23-5.44,25.68-2.81,51.27-6.34,76.73-10.85,51.67-9.17,102.4-21.83,151.86-39.49,45.85-16.37,89.68-36.89,131-62.68a7.4,7.4,0,0,0,3.75-5.51,346.47,346.47,0,0,0,5.06-40.86c1.59-28.8.31-57.41-5.32-85.77a5.13,5.13,0,0,0-2.61-3.74c-14.29-8.93-28.82-17.45-43.79-25.18C1156,394.6,1073,372.9,1000.94,360.78c-28.57-4.81-57.32-8.25-86.19-10.8s-57.81-4.15-86.78-5c-25.25-.76-50.48-.67-75.72,0-20.35.55-40.7,1.42-61,2.89a4.43,4.43,0,0,0-3.89,2.23c-28.78,44.28-46.36,92.66-52.22,145.11A337.22,337.22,0,0,0,637.85,590a332.53,332.53,0,0,0,44.84,119c5.91,9.63,6,9.58,17.17,10.11C727.45,720.38,755,721.7,782.66,721.63ZM730,768.54C802.59,844,923,891.08,1053.35,857.77c49.5-12.65,93.68-36,132.58-69.18S1254.7,715.38,1276,667.7c-2.11,1-3.21,1.45-4.28,2-53.45,27.57-109.58,48-167.72,63.06-73.44,19.07-148.23,29.43-223.86,34.26-37.42,2.39-74.88,3.06-112.37,2.61C755.41,769.48,743.06,769.49,730,768.54ZM1275.3,398.18c-36.55-86.77-128.14-182.48-268.22-198.11C900,188.12,807.66,222,730.43,297a5.74,5.74,0,0,0,3.05.58c29.72-1,59.45-1.43,89.2-.7,44,1.1,87.84,3.94,131.54,9.07A1119.11,1119.11,0,0,1,1077,327c58.31,13.56,115.06,31.73,169.36,57.13C1256,388.64,1265.54,393.43,1275.3,398.18Z"/><path class="cls-2" d="M777.3,721.63c-27.63.07-55.22-1.25-82.8-2.55-11.15-.53-11.26-.48-17.17-10.11a332.53,332.53,0,0,1-44.84-119,337.22,337.22,0,0,1-2.72-94.83c5.86-52.45,23.44-100.83,52.22-145.11a4.43,4.43,0,0,1,3.89-2.23c20.31-1.47,40.65-2.34,61-2.89,25.24-.67,50.47-.76,75.71,0,10.87.33,44.91,1.33,86.79,5,20.47,1.81,36,3.64,44.73,4.74,15.77,2,27.87,3.87,31.6,4.45,9.53,1.5,8.46,1.48,9.86,1.61,21.68,2,33.69-12.66,67.06-26.78,8.54-3.61,12.76-5.48,18.65-4.71,21.9,2.86,20.55,36,44.38,62a46.24,46.24,0,0,0,6.51,6.09c5.69,4.22,11.07,5.78,26.88,10,7.19,1.93,10.79,2.9,11.49,3.07,10.34,2.47,31.12,9.81,75.72,29.85h0s1.71-1.13,43.79,25.18a5.15,5.15,0,0,1,2.61,3.74c5.63,28.36,6.91,57,5.32,85.77a346.47,346.47,0,0,1-5.06,40.86,7.43,7.43,0,0,1-3.75,5.51c-52.14,32.54-131,62.68-131,62.68-50.44,17.73-76,24.2-124.48,35.94-19.87,4.81-23,4.92-27.38,3.55-26.11-8.24-20.3-52.26-38.75-57.17-25.44-6.76-80.89,65.17-108.21,73.46C854.88,721.2,850.36,721.44,777.3,721.63Z"/><path class="cls-3" d="M729.85,764.71c9,.55,22,1.13,37.8,1.09,52.44-.15,78.66-.21,101-9.88,39.85-17.27,66.45-56.82,80.81-49.89a56.11,56.11,0,0,1,11.72,8.27,52.4,52.4,0,0,1,9.62,12.14s7,5.28,14.27,10.33c26.78,18.61,118.8-7.84,118.8-7.84,42.52-12.21,100.38-28.33,167.72-63.06,1.07-.55,2.18-1,4.28-2-21.28,47.69-51.12,87.68-90.06,120.89s-83.08,56.53-132.58,69.18C922.93,887.25,802.48,840.19,729.85,764.71Z"/><path class="cls-4" d="M1275.3,398.18c-6.28-3.28-16.33-8.38-28.94-14.05-51.19-23.06-66.42-20.48-88.47-34.75-36.74-23.78-23.18-49.52-52-66.27-36.84-21.37-64.41,17.4-151.63,22.8-62.43,3.87-78-7.74-131.54-9.07-29.75-.73-59.48-.28-89.2.7a5.74,5.74,0,0,1-3.05-.58C807.66,222,900,188.12,1007.08,200.07,1147.16,215.7,1238.75,311.41,1275.3,398.18Z"/><line class="cls-5" x1="1105.85" y1="283.11" x2="917.02" y2="794.21"/><line class="cls-5" x1="993.62" y1="545.28" x2="755" y2="1217.99"/><path class="cls-5" d="M1107.74,271.06q-73,202.41-147.06,404.43c-5.6,15.27-11.21,30.54-11.21,30.54-.28.76-3.61,9.82-3.92,10.68-4.44,12.06-13.17,35.82-17,46.12L917,794.21l40.6-62,6.12-4.6"/><line class="cls-5" x1="923.91" y1="697.7" x2="733.19" y2="1220.85"/><line class="cls-5" x1="945.36" y1="692.34" x2="754.64" y2="1215.49"/></svg>